<?xml version="1.0" encoding="UTF-8"?>
<svg id="Layer_2" data-name="Layer 2" xmlns="http://www.w3.org/2000/svg" viewBox="0 0 1109.29 373.74">
  <defs>
    <style>
      .cls-1 {
        fill: #e65d25;
      }

      .cls-2 {
        fill: #fff;
      }

      .cls-3 {
        fill: #666;
      }
    </style>
  </defs>
  <g id="Layer_1-2" data-name="Layer 1">
    <g>
      <g>
        <path class="cls-1" d="M61.09,373.01h-2.81l15.6-43.64h3.04l15.51,43.64h-2.78l-14.18-40.21h-.23l-14.15,40.21ZM65.05,356.58h20.7v2.46h-20.7v-2.46Z"/>
        <path class="cls-1" d="M132.04,329.37v43.64h-2.6l-27.47-38.81h-.26v38.81h-2.66v-43.64h2.6l27.5,38.81h.26v-38.81h2.63Z"/>
        <path class="cls-1" d="M145.72,329.37v43.64h-2.66v-43.64h2.66Z"/>
        <path class="cls-1" d="M156.74,329.37h2.89l16.61,39.8h.29l16.61-39.8h2.92v43.64h-2.6v-37.28h-.26l-15.63,37.28h-2.46l-15.57-37.28h-.26v37.28h-2.55v-43.64Z"/>
        <path class="cls-1" d="M205.44,373.01h-2.81l15.6-43.64h3.04l15.51,43.64h-2.78l-14.18-40.21h-.23l-14.15,40.21ZM209.41,356.58h20.7v2.46h-20.7v-2.46Z"/>
        <path class="cls-1" d="M243.41,373.01v-43.64h2.66v41.18h21.04v2.46h-23.71Z"/>
        <path class="cls-1" d="M297.77,373.01l-11.84-43.64h2.72l10.54,39.54h.26l10.36-39.54h3.18l10.36,39.54h.26l10.51-39.54h2.72l-11.87,43.64h-3.01l-10.48-39.22h-.23l-10.45,39.22h-3.04Z"/>
        <path class="cls-1" d="M343.2,373.01v-43.64h23.99v2.49h-21.33v18.04h20.06v2.46h-20.06v18.19h21.85v2.46h-24.52Z"/>
        <path class="cls-1" d="M376.68,373.01v-43.64h2.66v41.18h21.04v2.46h-23.71Z"/>
        <path class="cls-1" d="M408.62,373.01v-43.64h2.66v41.18h21.04v2.46h-23.71Z"/>
        <path class="cls-1" d="M473.56,329.37v43.64h-2.6l-27.47-38.81h-.26v38.81h-2.66v-43.64h2.6l27.5,38.81h.26v-38.81h2.63Z"/>
        <path class="cls-1" d="M484.58,373.01v-43.64h23.99v2.49h-21.33v18.04h20.06v2.46h-20.06v18.19h21.85v2.46h-24.52Z"/>
        <path class="cls-1" d="M530.12,373.74c-2.78,0-5.2-.48-7.25-1.44-2.06-.96-3.68-2.28-4.86-3.98-1.19-1.7-1.86-3.66-2.01-5.89h2.69c.13,1.8.7,3.35,1.71,4.67,1,1.32,2.34,2.33,4.01,3.05,1.67.71,3.57,1.07,5.72,1.07,2.32,0,4.36-.4,6.12-1.2,1.77-.8,3.15-1.92,4.15-3.37,1-1.44,1.51-3.11,1.51-5.01,0-1.52-.36-2.83-1.09-3.91-.72-1.08-1.78-2.03-3.17-2.83s-3.12-1.51-5.18-2.14l-5.01-1.52c-3.4-1.05-5.98-2.48-7.74-4.26-1.77-1.79-2.65-4.02-2.65-6.69,0-2.25.58-4.24,1.75-5.97s2.77-3.1,4.8-4.09c2.04-.99,4.33-1.48,6.87-1.48s4.83.5,6.79,1.49c1.96,1,3.52,2.36,4.67,4.09s1.79,3.7,1.91,5.93h-2.58c-.23-2.69-1.33-4.88-3.29-6.55-1.96-1.67-4.48-2.5-7.57-2.5-2.08,0-3.95.39-5.59,1.16-1.64.77-2.92,1.84-3.85,3.19-.93,1.36-1.39,2.91-1.39,4.67,0,1.48.38,2.78,1.13,3.88.75,1.1,1.8,2.04,3.14,2.81,1.34.77,2.87,1.42,4.59,1.95l4.72,1.44c1.6.49,3.09,1.06,4.46,1.71,1.37.65,2.57,1.43,3.59,2.33,1.02.9,1.81,1.95,2.37,3.15.56,1.2.84,2.59.84,4.17,0,2.3-.58,4.36-1.75,6.18-1.17,1.82-2.82,3.25-4.96,4.31-2.14,1.05-4.68,1.58-7.61,1.58Z"/>
        <path class="cls-1" d="M565.51,373.74c-2.78,0-5.2-.48-7.25-1.44-2.06-.96-3.68-2.28-4.86-3.98-1.19-1.7-1.86-3.66-2.01-5.89h2.69c.13,1.8.7,3.35,1.71,4.67,1,1.32,2.34,2.33,4.01,3.05,1.67.71,3.57,1.07,5.72,1.07,2.32,0,4.36-.4,6.12-1.2,1.77-.8,3.15-1.92,4.15-3.37,1-1.44,1.51-3.11,1.51-5.01,0-1.52-.36-2.83-1.09-3.91-.72-1.08-1.78-2.03-3.17-2.83s-3.12-1.51-5.18-2.14l-5.01-1.52c-3.4-1.05-5.98-2.48-7.74-4.26-1.77-1.79-2.65-4.02-2.65-6.69,0-2.25.58-4.24,1.75-5.97s2.77-3.1,4.8-4.09c2.04-.99,4.33-1.48,6.87-1.48s4.83.5,6.79,1.49c1.96,1,3.52,2.36,4.67,4.09s1.79,3.7,1.91,5.93h-2.58c-.23-2.69-1.33-4.88-3.29-6.55-1.96-1.67-4.48-2.5-7.57-2.5-2.08,0-3.95.39-5.59,1.16-1.64.77-2.92,1.84-3.85,3.19-.93,1.36-1.39,2.91-1.39,4.67,0,1.48.38,2.78,1.13,3.88.75,1.1,1.8,2.04,3.14,2.81,1.34.77,2.87,1.42,4.59,1.95l4.72,1.44c1.6.49,3.09,1.06,4.46,1.71,1.37.65,2.57,1.43,3.59,2.33,1.02.9,1.81,1.95,2.37,3.15.56,1.2.84,2.59.84,4.17,0,2.3-.58,4.36-1.75,6.18-1.17,1.82-2.82,3.25-4.96,4.31-2.14,1.05-4.68,1.58-7.61,1.58Z"/>
        <path class="cls-1" d="M614.06,373.59c-2.45,0-4.63-.52-6.54-1.55s-3.41-2.44-4.5-4.2c-1.09-1.77-1.64-3.75-1.64-5.96,0-1.48.29-2.84.87-4.07.58-1.23,1.46-2.44,2.63-3.63,1.18-1.19,2.66-2.46,4.46-3.81l6.34-4.8c1.72-1.31,2.99-2.55,3.82-3.73.83-1.18,1.24-2.53,1.24-4.06,0-1.82-.61-3.37-1.84-4.66-1.23-1.29-2.78-1.93-4.67-1.93-1.33,0-2.53.33-3.59.98-1.06.65-1.91,1.52-2.53,2.59-.63,1.07-.94,2.26-.94,3.54,0,1.05.23,2.05.69,2.99.46.94,1.13,1.95,2,3.05.87,1.09,1.89,2.39,3.07,3.9l19.59,24.78h-3.15l-18-22.73c-1.37-1.76-2.57-3.27-3.59-4.54-1.02-1.27-1.81-2.48-2.36-3.63-.55-1.15-.82-2.43-.82-3.84,0-1.8.42-3.41,1.26-4.83.84-1.42,1.98-2.55,3.42-3.37,1.44-.82,3.07-1.23,4.91-1.23s3.41.4,4.78,1.19c1.37.79,2.44,1.86,3.21,3.21.77,1.35,1.16,2.86,1.16,4.54,0,1.87-.48,3.56-1.45,5.07-.96,1.5-2.49,3.04-4.57,4.6l-7.06,5.39c-2.35,1.78-3.98,3.39-4.89,4.83-.91,1.45-1.36,2.85-1.36,4.22,0,1.7.44,3.26,1.32,4.67.88,1.42,2.07,2.55,3.57,3.4,1.5.85,3.22,1.27,5.15,1.27s3.74-.37,5.38-1.1c1.64-.73,3.08-1.77,4.33-3.1s2.27-2.93,3.07-4.79,1.32-3.91,1.55-6.18l2.49.12c-.12,1.8-.41,3.4-.88,4.82s-1.02,2.66-1.65,3.72c-.63,1.06-1.23,1.99-1.81,2.77-.1.12-.19.24-.29.37-.1.13-.19.26-.29.4-1.2,1.46-2.82,2.72-4.86,3.78-2.05,1.05-4.38,1.58-7,1.58Z"/>
        <path class="cls-1" d="M653.69,373.01v-43.64h13.31c2.72,0,5.06.54,7.02,1.61s3.46,2.57,4.5,4.5c1.04,1.92,1.56,4.15,1.56,6.69s-.52,4.67-1.56,6.58c-1.04,1.9-2.54,3.39-4.49,4.45-1.95,1.06-4.29,1.6-7.03,1.6h-11.9v-2.52h11.84c2.2,0,4.09-.41,5.66-1.24,1.57-.83,2.78-2,3.62-3.51.84-1.51,1.26-3.29,1.26-5.34s-.42-3.9-1.26-5.43c-.84-1.53-2.05-2.73-3.62-3.59-1.57-.86-3.46-1.29-5.66-1.29h-10.59v41.15h-2.66ZM678.98,373.01l-10.54-19.77h2.95l10.59,19.77h-3.01Z"/>
        <path class="cls-1" d="M689.25,373.01v-43.64h2.66v20.59h25.93v-20.59h2.63v43.64h-2.63v-20.59h-25.93v20.59h-2.66Z"/>
        <path class="cls-1" d="M729.87,373.01h-2.81l15.6-43.64h3.04l15.51,43.64h-2.78l-14.18-40.21h-.23l-14.15,40.21ZM733.84,356.58h20.7v2.46h-20.7v-2.46Z"/>
        <path class="cls-1" d="M767.84,373.01v-43.64h14.01c2.6,0,4.8.47,6.6,1.41,1.79.94,3.16,2.26,4.1,3.95.94,1.7,1.4,3.66,1.4,5.89,0,1.78-.28,3.34-.84,4.7s-1.34,2.48-2.34,3.37c-1,.89-2.18,1.51-3.53,1.86v.23c1.49.12,2.87.64,4.14,1.58,1.27.94,2.3,2.2,3.08,3.78.78,1.58,1.17,3.43,1.17,5.54,0,2.23-.47,4.19-1.42,5.9-.95,1.71-2.36,3.04-4.24,4-1.88.96-4.21,1.44-6.99,1.44h-15.14ZM770.5,349.64h12.27c1.83,0,3.39-.4,4.67-1.22,1.28-.81,2.26-1.9,2.94-3.27.68-1.37,1.01-2.88,1.01-4.54,0-2.69-.83-4.83-2.49-6.4-1.66-1.57-4.01-2.36-7.06-2.36h-11.35v17.78ZM770.5,370.55h12.47c3.24,0,5.74-.82,7.48-2.48,1.75-1.65,2.62-3.78,2.62-6.4,0-1.83-.42-3.48-1.26-4.92-.84-1.44-2.01-2.59-3.52-3.43-1.5-.84-3.25-1.26-5.24-1.26h-12.56v18.48Z"/>
        <path class="cls-1" d="M807.28,329.37v43.64h-2.66v-43.64h2.66Z"/>
        <path class="cls-1" d="M818.29,373.01v-43.64h2.66v41.18h21.04v2.46h-23.71Z"/>
        <path class="cls-1" d="M852.9,329.37v43.64h-2.66v-43.64h2.66Z"/>
        <path class="cls-1" d="M861.08,331.86v-2.49h30.19v2.49h-13.78v41.15h-2.63v-41.15h-13.78Z"/>
        <path class="cls-1" d="M892.73,373.01h-2.81l15.6-43.64h3.04l15.51,43.64h-2.78l-14.18-40.21h-.23l-14.15,40.21ZM896.7,356.58h20.7v2.46h-20.7v-2.46Z"/>
        <path class="cls-1" d="M922.82,331.86v-2.49h30.19v2.49h-13.78v41.15h-2.63v-41.15h-13.78Z"/>
        <path class="cls-1" d="M963.83,329.37v43.64h-2.66v-43.64h2.66Z"/>
        <path class="cls-1" d="M990.94,373.59c-3.59,0-6.76-.93-9.51-2.8-2.75-1.86-4.9-4.48-6.45-7.83-1.55-3.36-2.33-7.27-2.33-11.74s.78-8.44,2.33-11.8c1.55-3.36,3.7-5.97,6.45-7.83,2.75-1.86,5.92-2.8,9.51-2.8s6.75.93,9.49,2.8c2.74,1.87,4.88,4.48,6.43,7.83,1.54,3.36,2.32,7.29,2.32,11.8s-.77,8.42-2.32,11.77c-1.54,3.36-3.69,5.97-6.43,7.82-2.74,1.86-5.9,2.78-9.49,2.78ZM990.94,371.05c3.05,0,5.75-.81,8.1-2.43,2.35-1.62,4.2-3.92,5.54-6.9,1.34-2.98,2.01-6.48,2.01-10.5s-.67-7.55-2.01-10.53c-1.34-2.98-3.19-5.28-5.54-6.91-2.35-1.63-5.06-2.45-8.1-2.45s-5.76.81-8.12,2.42c-2.36,1.61-4.22,3.91-5.57,6.88s-2.03,6.51-2.03,10.59.67,7.52,2.01,10.48c1.34,2.97,3.19,5.27,5.56,6.9,2.36,1.63,5.08,2.45,8.15,2.45Z"/>
        <path class="cls-1" d="M1051.01,329.37v43.64h-2.6l-27.47-38.81h-.26v38.81h-2.66v-43.64h2.6l27.5,38.81h.26v-38.81h2.63Z"/>
      </g>
      <g>
        <path class="cls-3" d="M0,277.81v-6.98l79.48-125.63H.09v-8.02h89.55v7.17L10.17,269.89h80.04v7.93H0Z"/>
        <path class="cls-3" d="M120.33,277.81v-140.64h77.33v8.02h-68.75v58.14h64.64v7.93h-64.64v58.62h70.43v7.93h-79.01Z"/>
        <path class="cls-3" d="M336.1,137.17v140.64h-8.4l-88.52-125.07h-.84v125.07h-8.58v-140.64h8.4l88.62,125.07h.84v-125.07h8.49Z"/>
      </g>
      <g>
        <path class="cls-3" d="M768.44,142.15v140.64h-8.58v-140.64h8.58ZM798.38,282.79h-33.86v-7.93h33.49c12.44,0,22.9-2.5,31.39-7.5,8.49-5,14.91-12.21,19.26-21.62,4.35-9.41,6.53-20.62,6.53-33.65s-2.08-24.05-6.25-33.27c-4.17-9.22-10.28-16.3-18.33-21.24-8.05-4.94-17.93-7.41-29.62-7.41h-36.75v-8.02h37.13c13.06,0,24.21,2.78,33.44,8.35,9.23,5.57,16.32,13.58,21.27,24.02,4.94,10.45,7.42,22.97,7.42,37.57s-2.55,27.47-7.65,38.04c-5.1,10.57-12.5,18.66-22.2,24.26-9.7,5.6-21.46,8.4-35.26,8.4Z"/>
        <path class="cls-3" d="M893.53,282.79v-140.64h77.33v8.02h-68.75v58.14h64.64v7.93h-64.64v58.62h70.43v7.93h-79.01Z"/>
        <path class="cls-3" d="M1109.29,142.15v140.64h-8.39l-88.53-125.07h-.84v125.07h-8.58v-140.64h8.4l88.62,125.07h.84v-125.07h8.49Z"/>
      </g>
      <g>
        <path class="cls-1" d="M551.31,0h0c-81.66,0-147.87,66.2-147.87,147.87h0c0,81.66,66.2,147.87,147.87,147.87h0c81.66,0,147.87-66.2,147.87-147.87h0C699.18,66.2,632.97,0,551.31,0ZM616.17,92.51c-1.22,6.15-3.38,15.01-5.36,20.92-1,2.98-2.99,5.87-4.85,8.38-.64.86-1.93,2.82-2.81,3.27-.82.43-5.35.53-6.08.11-.88-.51-.47-1.95.12-2.59,1.16-1.25,3.28-1.45,4.76-3.37,2.22-2.88-.14-4.86-.35-7.69-.1-1.36.11-2.57.53-3.84-6.25,5.27-14.31,11.3-22.78,11.81-5.35.32-10.68-.94-16.07-.34-8.21.92-18.9,7.23-26.42,6-1.45-.24-5.58-1.27-5.64-3.1-.07-2.21,4.51-1.37,5.95-1.48,3.14-.25,9.2-2.58,12.29-3.8,2.27-.9,8.51-3.52,9.88-5.32.48-.64.76-1.81.08-2.41-.48-.42-4.31-1.51-5.35-1.98-.41-.19-1.42-.54-1.63-.88-.2-.33-.12-.69-.27-.99-.14-.27-.41-.43-.58-.85-.28-.68-.53-1.93-.39-2.64.14-.74,2.64-1.42,3.45-1.92,1.17-.72,1.97-1.88,3.3-2.42,1.19-.48,2.2-.35,3.44-.49l1.18-1.86c.97-.14,1.72,2.81,1.96,2.86,1.34-.46,5.54-2.69,6.75-1.82.89.64-1.06,4.14-1.31,5.02,4.04-.24,5.4,3.25,8.85-.53,1.87-2.05,2.85-2.59,4.82-4.3,4.35-3.77,4.28-9.33,7.61-13.31,1.95-2.33,5-4.21,7.87-5.18,1.2-.41,7.45-1.61,7.76-2.07.23-.34.59-3.4.63-4.02.64-10.85-5.52-21.36-17.43-20.82-4.41.2-9.65,2.52-13.59,2.46-2.48-.03-4.05-1.57-1.99-3.65,2.55-2.58,9.33-4.45,12.9-4.71,16.49-1.18,24.69,9.7,26.36,24.94.26,2.41.02,5.46.37,7.67.12.76,1.08,2.61,1.37,3.64,1.04,3.69,1.43,7.52.68,11.3Z"/>
        <path class="cls-2" d="M613.22,261.21c-.04.07-.09.15-.13.22-7.31,11.82-19.27,20.06-32.87,22.92-9.72,2.05-19.81,3.09-30.16,3-75.36-.66-137.04-61.9-138.22-137.25-1.1-70.4,49.98-129.08,117.07-139.91-9.32,3.4-17.61,8.95-24.66,16.56-17.28,18.66-23.02,40.75-17.25,65.69,3.35,14.49,10.97,26.5,22.11,36.1,10.86,9.35,23.56,14.58,37.86,15.77,8.69.72,17.44,1.25,25.85,3.88,10.2,3.2,19.34,8.37,27.27,15.58,10.05,9.16,17.34,20.24,21.27,33.31,6.77,22.54,4.17,44.03-8.15,64.13Z"/>
        <path class="cls-3" d="M448.21,194.86l.07-.1c4.49-2.86,8.81-5.86,12.71-9.51,5.2-4.87,10.41-10.77,17.98-11.51.82-.08,1.64-.09,2.46-.03,1.59.12,3.3.47,4.69,1.29.02.01.04.02.06.02,1.24.17,2.39-.02,3.57.1,1.54.15,6.33,2.25,7.8,3.09,5.51,3.13,8.23,8.36,12.35,12.71.45.48,4.65,4.08,4.96,4.19.63.23,2,.4,2.73.54,1.51.3.66-.07,1.35-.19.52-.09,1.66.49,2.61.34.9-.14,1.74-1.43,2.88-1.68,0,0,.01,0,.02,0l5.03-.59s.04,0,.05-.01c.8-.39,1.63-2.46,2.26-3.15,1.31-1.46,3.6-3.31,5.03-4.77,1.66-1.71,1.43-2.78,4.29-3.55,1.68-.45,3.56-.39,5.28-.39,3.26,0,7.56-.02,9.83,2.82.46.57.33,1.82.89,2.21.91.63,3.66.98,4.86,1.41.71.26,4.39,1.95,4.54,2.43.38,1.24-.59,2.09-.93,3.12-.6,1.79-.11,2.87-1.85,4.25-1.3,1.03-2.11.89-3.43,1.36-1.03.37-1.98,1.47-3.21,1.81-1.42.39-3.01.14-4.34.89-.81.46-1.73,2.41-2.42,3.24-.95,1.15-2.69,2.26-3.48,3.28-.65.84-1.2,2.26-1.6,3.3-.03.09-.13.12-.22.08-.11-.06-.24.04-.23.16.24,1.81,1.1,4.65.24,6.19-.21.37-.7.48-.87,1.09-.25.91-.12,3.31.39,4.07.47.69,5.57,1.05,6.79,1.28,2.12.39,4.71,1.35,6.84,1.46,2.98.15,4.79-1.16,7.78.7.55.34.94,1.09,1.61,1.23.73.15,1.71-.19,2.53-.15,2.69.14,5.38,1.02,5.71,4.02,0,.06-.02.12-.07.15-.37.27-.81.45-1.24.6-2.83,1-6.58.12-9.42-.15-.84-.08-1.78.16-2.69.03-.76-.11-2.29-.75-2.94-.74-2.06.02-5.37,1.24-7.65,1.48-2.96.31-6.14.04-9.14.02-1.53-.01-2.96.63-4.54-.45-.46-.31-.67-1.02-1-1.34-.89-.86-2.72-1.55-3.85-2.2-.12-.07-.16-.36-.31-.44-.59-.34-1.49-.54-2.11-.9-.08-.05-.19,0-.22.08-.24.62-.48-.06-1.02-.15-.33-.05-4.89.22-5.14.31-.22.08-1.37.71-1.46.74-4.25,1.06-8.29.55-12.2-.81-.38-.13-.84-.02-1.31-.21-.67-.27-1.33-1.46-1.91-1.82-.34-.21-.62-.01-.88-.18s-3.17-3.93-3.7-4.58c-1.97-2.4-3.79-5.04-5.86-7.21-1.49-1.56-2.22-4.09-2.9-6.04-.05-.14-.07-.3-.07-.45s-.2-.21-.29-.09c-1.31,1.81-2.03,4.08-3.32,5.91-1.36,1.95-4.54,4.11-5.21,6.12-.18.55-.99,3.59-1,4.03,0,.28.02.55.07.82.11.6,2.39,4.54,2.84,4.89s2.54.57,3.36.89c1.96.77,3.9,2.25,2.96,4.49-.03.07-.12.11-.2.09-1.1-.27-2.02.78-3.1-.06-.08-.06-.19-.03-.24.05l-.09.17c-.03.06-.09.09-.16.08-1.39-.16-5.14.05-5.98-1.08-.39-.52-.26-1.14-.49-1.69-.41-.93-2.26-2.5-2.7-3.62l-4.04-8.34s-.02-.05-.02-.08c.1-2.15,2.2-3.68,2.95-5.71.04-.12-.07-.24-.19-.21-.94.26-3.33,3.55-3.63,4.1-1.2,2.17-1.44,4.2-.48,6.51s1.34,1.09,3,1.79c.72.3,1.54,1.56,1.6,2.35.02.26-.14,1.35-.24,1.41-.1.06-.49-.2-.72-.16-.39.07-.63.52-1.55.61-1.11.11-1.79-.34-2.41-.36-.97-.03-2.2,1.04-3.25-.54-.61-.92-1.38-3.58-1.6-4.72-.13-.64.03-1.29-.07-1.89-.4-2.21-1.21-4.65-1.06-6.97.16-2.45,4.68-4.35,5.39-7.05.77-2.91,1.17-8.32.65-11.22-.16-.91-1.03-2.29-1.24-3.34-.7-3.5-.16-10.9,2.6-13.49.59-.55,1.46-.72,1.98-1.36,1.18-1.46-2-1.17-2.69-.87-1.63.7-2.89,2.59-4.13,3.83-1.47,1.47-2.97,2.9-4.54,4.25-4.51,3.86-9.92,7.57-15.62,9.36-.81.26-2.91.89-3.09-.5-.09-.7-.08-1.03-.05-1.18Z"/>
      </g>
    </g>
  </g>
</svg>